<?xml version="1.0" standalone="no"?>
<!DOCTYPE svg PUBLIC "-//W3C//DTD SVG 20010904//EN"
 "http://www.w3.org/TR/2001/REC-SVG-20010904/DTD/svg10.dtd">
<svg version="1.0" xmlns="http://www.w3.org/2000/svg"
 width="355.000000pt" height="354.000000pt" viewBox="0 0 355.000000 354.000000"
 preserveAspectRatio="xMidYMid meet">
<metadata>
Created by potrace 1.16, written by Peter Selinger 2001-2019
</metadata>
<g transform="translate(0.000000,354.000000) scale(0.100000,-0.100000)"
fill="#000000" stroke="none">
<path d="M1658 3313 c-16 -2 -43 -19 -61 -36 -29 -28 -53 -88 -203 -518 l-169
-486 -510 -7 c-565 -8 -560 -7 -598 -73 -24 -42 -24 -115 0 -153 10 -16 189
-165 398 -330 209 -166 387 -309 396 -318 16 -16 7 -49 -122 -482 -86 -289
-139 -482 -139 -509 0 -89 63 -147 154 -139 47 4 80 24 470 286 l420 282 222
683 c123 375 228 702 234 727 11 44 9 53 -154 515 -91 259 -171 480 -178 493
-23 44 -98 75 -160 65z"/>
<path d="M2425 2698 c-18 -54 -114 -432 -110 -436 2 -3 21 8 42 24 35 26 402
312 413 321 10 9 -28 22 -164 57 -77 21 -149 39 -159 42 -9 3 -19 -1 -22 -8z"/>
<path d="M2291 2068 c-15 -41 -181 -511 -181 -514 0 -1 43 -26 96 -55 81 -43
98 -49 109 -38 24 24 415 523 415 529 0 6 -394 100 -418 100 -7 0 -16 -10 -21
-22z"/>
<path d="M2710 1782 c-135 -169 -246 -312 -248 -317 -1 -6 38 -30 87 -55 l90
-43 318 161 c491 249 513 262 535 302 36 65 9 164 -53 196 -21 11 -438 66
-477 63 -4 0 -117 -138 -252 -307z"/>
<path d="M2291 1220 c-34 -44 -67 -80 -74 -80 -7 0 -64 29 -127 65 -62 35
-115 63 -116 62 -1 -2 -48 -134 -129 -364 l-54 -152 116 -83 116 -82 314 158
c250 125 313 161 309 174 -3 9 -10 60 -16 112 -6 52 -13 105 -15 116 -3 15
-40 41 -124 88 -66 36 -124 66 -129 66 -5 0 -37 -36 -71 -80z"/>
<path d="M2502 712 l-263 -135 178 -179 c98 -99 190 -186 205 -194 60 -32 160
-7 188 47 26 48 27 83 4 319 -13 135 -24 253 -24 263 0 9 -6 17 -12 16 -7 0
-131 -62 -276 -137z"/>
</g>
</svg>
