<svg xmlns:dc="http://purl.org/dc/elements/1.1/" xmlns:cc="http://creativecommons.org/ns#" xmlns:rdf="http://www.w3.org/1999/02/22-rdf-syntax-ns#" xmlns:svg="http://www.w3.org/2000/svg" xmlns="http://www.w3.org/2000/svg" xmlns:sodipodi="http://sodipodi.sourceforge.net/DTD/sodipodi-0.dtd" xmlns:inkscape="http://www.inkscape.org/namespaces/inkscape" viewBox="0 0 8.4666667 10.583333625" version="1.1" x="0px" y="0px"><svg:g><svg:path style="color:#000000;font-style:normal;font-variant:normal;font-weight:normal;font-stretch:normal;font-size:medium;line-height:normal;font-family:sans-serif;font-variant-ligatures:normal;font-variant-position:normal;font-variant-caps:normal;font-variant-numeric:normal;font-variant-alternates:normal;font-feature-settings:normal;text-indent:0;text-align:start;text-decoration:none;text-decoration-line:none;text-decoration-style:solid;text-decoration-color:#000000;letter-spacing:normal;word-spacing:normal;text-transform:none;writing-mode:lr-tb;direction:ltr;text-orientation:mixed;dominant-baseline:auto;baseline-shift:baseline;text-anchor:start;white-space:normal;shape-padding:0;clip-rule:nonzero;display:inline;overflow:visible;visibility:visible;opacity:1;isolation:auto;mix-blend-mode:normal;color-interpolation:sRGB;color-interpolation-filters:linearRGB;solid-color:#000000;solid-opacity:1;vector-effect:none;fill:#000000;fill-opacity:1;fill-rule:nonzero;stroke:none;stroke-width:0.5291667;stroke-linecap:round;stroke-linejoin:round;stroke-miterlimit:4;stroke-dasharray:none;stroke-dashoffset:0;stroke-opacity:1;color-rendering:auto;image-rendering:auto;shape-rendering:auto;text-rendering:auto;enable-background:accumulate" d="m 4.2330754,3.0330699e-4 c -1.9062912,0 -3.45664101,1.55086299301 -3.45663572,3.45715399301 0,1.041342 0.84545222,2.220339 1.65622812,3.201355 0.8107786,0.981014 1.6190225,1.736328 1.6190225,1.736328 a 0.26460984,0.26460984 0 0 0 0.3612197,0 c 0,0 0.8082439,-0.755314 1.6190224,-1.736328 0.810776,-0.981016 1.6582946,-2.160013 1.6582946,-3.201355 0,-1.906291 -1.5508605,-3.45715399301 -3.4571516,-3.45715399301 z M 4.2418554,1.4451773 a 0.26460979,0.26460979 0 0 1 0.1477963,0.05168 l 1.1539325,0.851112 a 0.26460979,0.26460979 0 0 1 0.00775,0.0057 l 0.4692227,0.346234 A 0.26474491,0.26474491 0 1 1 5.705852,3.1256943 l -0.054777,-0.04031 v 1.223698 a 0.26460979,0.26460979 0 0 1 -0.2656152,0.265615 h -2.30632 a 0.26460979,0.26460979 0 0 1 -0.264067,-0.265612 v -1.224733 l -0.056327,0.04134 A 0.26474412,0.26474412 0 1 1 2.444037,2.6998813 l 1.6309075,-1.203029 a 0.26460979,0.26460979 0 0 1 0.1405599,-0.05116 0.26460979,0.26460979 0 0 1 0.026355,-5.16e-4 z m -0.00878,0.594278 -0.8883174,0.654224 v 0.219107 1.132747 h 0.6226995 v -0.437697 a 0.26460984,0.26460984 0 0 1 0.262001,-0.267684 0.26460984,0.26460984 0 0 1 0.2676843,0.267684 v 0.437697 h 0.6247659 v -1.132747 -0.217556 z"/></svg:g><text x="0" y="23.4666669" fill="#000000" font-size="5px" font-weight="bold" font-family="'Helvetica Neue', Helvetica, Arial-Unicode, Arial, Sans-serif">Created by Larea</text><text x="0" y="28.4666669" fill="#000000" font-size="5px" font-weight="bold" font-family="'Helvetica Neue', Helvetica, Arial-Unicode, Arial, Sans-serif">from the Noun Project</text></svg>